<?xml version="1.0" encoding="utf-8" standalone="no"?>
<!DOCTYPE svg PUBLIC "-//W3C//DTD SVG 1.1//EN"
  "http://www.w3.org/Graphics/SVG/1.1/DTD/svg11.dtd">
<!-- Created with matplotlib (http://matplotlib.org/) -->
<svg height="345pt" version="1.1" viewBox="0 0 460 345" width="460pt" xmlns="http://www.w3.org/2000/svg" xmlns:xlink="http://www.w3.org/1999/xlink">
 <defs>
  <style type="text/css">
*{stroke-linecap:butt;stroke-linejoin:round;}
  </style>
 </defs>
 <g id="figure_1">
  <g id="patch_1">
   <path d="M 0 345.6 
L 460.8 345.6 
L 460.8 0 
L 0 0 
z
" style="fill:#ffffff;"/>
  </g>
  <g id="axes_1">
   <g id="patch_2">
    <path d="M 57.6 307.584 
L 414.72 307.584 
L 414.72 41.472 
L 57.6 41.472 
z
" style="fill:#ffffff;"/>
   </g>
   <g id="matplotlib.axis_1">
    <g id="xtick_1">
     <g id="line2d_1">
      <defs>
       <path d="M 0 0 
L 0 3.5 
" id="m12c1291466" style="stroke:#000000;stroke-width:0.8;"/>
      </defs>
      <g>
       <use style="stroke:#000000;stroke-width:0.8;" x="73.832727" xlink:href="#m12c1291466" y="307.584"/>
      </g>
     </g>
     <g id="text_1">
      <!-- 0 -->
      <defs>
       <path d="M 31.78125 66.40625 
Q 24.171875 66.40625 20.328125 58.90625 
Q 16.5 51.421875 16.5 36.375 
Q 16.5 21.390625 20.328125 13.890625 
Q 24.171875 6.390625 31.78125 6.390625 
Q 39.453125 6.390625 43.28125 13.890625 
Q 47.125 21.390625 47.125 36.375 
Q 47.125 51.421875 43.28125 58.90625 
Q 39.453125 66.40625 31.78125 66.40625 
z
M 31.78125 74.21875 
Q 44.046875 74.21875 50.515625 64.515625 
Q 56.984375 54.828125 56.984375 36.375 
Q 56.984375 17.96875 50.515625 8.265625 
Q 44.046875 -1.421875 31.78125 -1.421875 
Q 19.53125 -1.421875 13.0625 8.265625 
Q 6.59375 17.96875 6.59375 36.375 
Q 6.59375 54.828125 13.0625 64.515625 
Q 19.53125 74.21875 31.78125 74.21875 
z
" id="DejaVuSans-30"/>
      </defs>
      <g transform="translate(70.651477 322.182437)scale(0.1 -0.1)">
       <use xlink:href="#DejaVuSans-30"/>
      </g>
     </g>
    </g>
    <g id="xtick_2">
     <g id="line2d_2">
      <g>
       <use style="stroke:#000000;stroke-width:0.8;" x="120.211948" xlink:href="#m12c1291466" y="307.584"/>
      </g>
     </g>
     <g id="text_2">
      <!-- 2 -->
      <defs>
       <path d="M 19.1875 8.296875 
L 53.609375 8.296875 
L 53.609375 0 
L 7.328125 0 
L 7.328125 8.296875 
Q 12.9375 14.109375 22.625 23.890625 
Q 32.328125 33.6875 34.8125 36.53125 
Q 39.546875 41.84375 41.421875 45.53125 
Q 43.3125 49.21875 43.3125 52.78125 
Q 43.3125 58.59375 39.234375 62.25 
Q 35.15625 65.921875 28.609375 65.921875 
Q 23.96875 65.921875 18.8125 64.3125 
Q 13.671875 62.703125 7.8125 59.421875 
L 7.8125 69.390625 
Q 13.765625 71.78125 18.9375 73 
Q 24.125 74.21875 28.421875 74.21875 
Q 39.75 74.21875 46.484375 68.546875 
Q 53.21875 62.890625 53.21875 53.421875 
Q 53.21875 48.921875 51.53125 44.890625 
Q 49.859375 40.875 45.40625 35.40625 
Q 44.1875 33.984375 37.640625 27.21875 
Q 31.109375 20.453125 19.1875 8.296875 
z
" id="DejaVuSans-32"/>
      </defs>
      <g transform="translate(117.030698 322.182437)scale(0.1 -0.1)">
       <use xlink:href="#DejaVuSans-32"/>
      </g>
     </g>
    </g>
    <g id="xtick_3">
     <g id="line2d_3">
      <g>
       <use style="stroke:#000000;stroke-width:0.8;" x="166.591169" xlink:href="#m12c1291466" y="307.584"/>
      </g>
     </g>
     <g id="text_3">
      <!-- 4 -->
      <defs>
       <path d="M 37.796875 64.3125 
L 12.890625 25.390625 
L 37.796875 25.390625 
z
M 35.203125 72.90625 
L 47.609375 72.90625 
L 47.609375 25.390625 
L 58.015625 25.390625 
L 58.015625 17.1875 
L 47.609375 17.1875 
L 47.609375 0 
L 37.796875 0 
L 37.796875 17.1875 
L 4.890625 17.1875 
L 4.890625 26.703125 
z
" id="DejaVuSans-34"/>
      </defs>
      <g transform="translate(163.409919 322.182437)scale(0.1 -0.1)">
       <use xlink:href="#DejaVuSans-34"/>
      </g>
     </g>
    </g>
    <g id="xtick_4">
     <g id="line2d_4">
      <g>
       <use style="stroke:#000000;stroke-width:0.8;" x="212.97039" xlink:href="#m12c1291466" y="307.584"/>
      </g>
     </g>
     <g id="text_4">
      <!-- 6 -->
      <defs>
       <path d="M 33.015625 40.375 
Q 26.375 40.375 22.484375 35.828125 
Q 18.609375 31.296875 18.609375 23.390625 
Q 18.609375 15.53125 22.484375 10.953125 
Q 26.375 6.390625 33.015625 6.390625 
Q 39.65625 6.390625 43.53125 10.953125 
Q 47.40625 15.53125 47.40625 23.390625 
Q 47.40625 31.296875 43.53125 35.828125 
Q 39.65625 40.375 33.015625 40.375 
z
M 52.59375 71.296875 
L 52.59375 62.3125 
Q 48.875 64.0625 45.09375 64.984375 
Q 41.3125 65.921875 37.59375 65.921875 
Q 27.828125 65.921875 22.671875 59.328125 
Q 17.53125 52.734375 16.796875 39.40625 
Q 19.671875 43.65625 24.015625 45.921875 
Q 28.375 48.1875 33.59375 48.1875 
Q 44.578125 48.1875 50.953125 41.515625 
Q 57.328125 34.859375 57.328125 23.390625 
Q 57.328125 12.15625 50.6875 5.359375 
Q 44.046875 -1.421875 33.015625 -1.421875 
Q 20.359375 -1.421875 13.671875 8.265625 
Q 6.984375 17.96875 6.984375 36.375 
Q 6.984375 53.65625 15.1875 63.9375 
Q 23.390625 74.21875 37.203125 74.21875 
Q 40.921875 74.21875 44.703125 73.484375 
Q 48.484375 72.75 52.59375 71.296875 
z
" id="DejaVuSans-36"/>
      </defs>
      <g transform="translate(209.78914 322.182437)scale(0.1 -0.1)">
       <use xlink:href="#DejaVuSans-36"/>
      </g>
     </g>
    </g>
    <g id="xtick_5">
     <g id="line2d_5">
      <g>
       <use style="stroke:#000000;stroke-width:0.8;" x="259.34961" xlink:href="#m12c1291466" y="307.584"/>
      </g>
     </g>
     <g id="text_5">
      <!-- 8 -->
      <defs>
       <path d="M 31.78125 34.625 
Q 24.75 34.625 20.71875 30.859375 
Q 16.703125 27.09375 16.703125 20.515625 
Q 16.703125 13.921875 20.71875 10.15625 
Q 24.75 6.390625 31.78125 6.390625 
Q 38.8125 6.390625 42.859375 10.171875 
Q 46.921875 13.96875 46.921875 20.515625 
Q 46.921875 27.09375 42.890625 30.859375 
Q 38.875 34.625 31.78125 34.625 
z
M 21.921875 38.8125 
Q 15.578125 40.375 12.03125 44.71875 
Q 8.5 49.078125 8.5 55.328125 
Q 8.5 64.0625 14.71875 69.140625 
Q 20.953125 74.21875 31.78125 74.21875 
Q 42.671875 74.21875 48.875 69.140625 
Q 55.078125 64.0625 55.078125 55.328125 
Q 55.078125 49.078125 51.53125 44.71875 
Q 48 40.375 41.703125 38.8125 
Q 48.828125 37.15625 52.796875 32.3125 
Q 56.78125 27.484375 56.78125 20.515625 
Q 56.78125 9.90625 50.3125 4.234375 
Q 43.84375 -1.421875 31.78125 -1.421875 
Q 19.734375 -1.421875 13.25 4.234375 
Q 6.78125 9.90625 6.78125 20.515625 
Q 6.78125 27.484375 10.78125 32.3125 
Q 14.796875 37.15625 21.921875 38.8125 
z
M 18.3125 54.390625 
Q 18.3125 48.734375 21.84375 45.5625 
Q 25.390625 42.390625 31.78125 42.390625 
Q 38.140625 42.390625 41.71875 45.5625 
Q 45.3125 48.734375 45.3125 54.390625 
Q 45.3125 60.0625 41.71875 63.234375 
Q 38.140625 66.40625 31.78125 66.40625 
Q 25.390625 66.40625 21.84375 63.234375 
Q 18.3125 60.0625 18.3125 54.390625 
z
" id="DejaVuSans-38"/>
      </defs>
      <g transform="translate(256.16836 322.182437)scale(0.1 -0.1)">
       <use xlink:href="#DejaVuSans-38"/>
      </g>
     </g>
    </g>
    <g id="xtick_6">
     <g id="line2d_6">
      <g>
       <use style="stroke:#000000;stroke-width:0.8;" x="305.728831" xlink:href="#m12c1291466" y="307.584"/>
      </g>
     </g>
     <g id="text_6">
      <!-- 10 -->
      <defs>
       <path d="M 12.40625 8.296875 
L 28.515625 8.296875 
L 28.515625 63.921875 
L 10.984375 60.40625 
L 10.984375 69.390625 
L 28.421875 72.90625 
L 38.28125 72.90625 
L 38.28125 8.296875 
L 54.390625 8.296875 
L 54.390625 0 
L 12.40625 0 
z
" id="DejaVuSans-31"/>
      </defs>
      <g transform="translate(299.366331 322.182437)scale(0.1 -0.1)">
       <use xlink:href="#DejaVuSans-31"/>
       <use x="63.623047" xlink:href="#DejaVuSans-30"/>
      </g>
     </g>
    </g>
    <g id="xtick_7">
     <g id="line2d_7">
      <g>
       <use style="stroke:#000000;stroke-width:0.8;" x="352.108052" xlink:href="#m12c1291466" y="307.584"/>
      </g>
     </g>
     <g id="text_7">
      <!-- 12 -->
      <g transform="translate(345.745552 322.182437)scale(0.1 -0.1)">
       <use xlink:href="#DejaVuSans-31"/>
       <use x="63.623047" xlink:href="#DejaVuSans-32"/>
      </g>
     </g>
    </g>
    <g id="xtick_8">
     <g id="line2d_8">
      <g>
       <use style="stroke:#000000;stroke-width:0.8;" x="398.487273" xlink:href="#m12c1291466" y="307.584"/>
      </g>
     </g>
     <g id="text_8">
      <!-- 14 -->
      <g transform="translate(392.124773 322.182437)scale(0.1 -0.1)">
       <use xlink:href="#DejaVuSans-31"/>
       <use x="63.623047" xlink:href="#DejaVuSans-34"/>
      </g>
     </g>
    </g>
   </g>
   <g id="matplotlib.axis_2">
    <g id="ytick_1">
     <g id="line2d_9">
      <defs>
       <path d="M 0 0 
L -3.5 0 
" id="mc6563172f3" style="stroke:#000000;stroke-width:0.8;"/>
      </defs>
      <g>
       <use style="stroke:#000000;stroke-width:0.8;" x="57.6" xlink:href="#mc6563172f3" y="295.542568"/>
      </g>
     </g>
     <g id="text_9">
      <!-- −6 -->
      <defs>
       <path d="M 10.59375 35.5 
L 73.1875 35.5 
L 73.1875 27.203125 
L 10.59375 27.203125 
z
" id="DejaVuSans-2212"/>
      </defs>
      <g transform="translate(35.857813 299.341787)scale(0.1 -0.1)">
       <use xlink:href="#DejaVuSans-2212"/>
       <use x="83.789062" xlink:href="#DejaVuSans-36"/>
      </g>
     </g>
    </g>
    <g id="ytick_2">
     <g id="line2d_10">
      <g>
       <use style="stroke:#000000;stroke-width:0.8;" x="57.6" xlink:href="#mc6563172f3" y="255.213472"/>
      </g>
     </g>
     <g id="text_10">
      <!-- −4 -->
      <g transform="translate(35.857813 259.01269)scale(0.1 -0.1)">
       <use xlink:href="#DejaVuSans-2212"/>
       <use x="83.789062" xlink:href="#DejaVuSans-34"/>
      </g>
     </g>
    </g>
    <g id="ytick_3">
     <g id="line2d_11">
      <g>
       <use style="stroke:#000000;stroke-width:0.8;" x="57.6" xlink:href="#mc6563172f3" y="214.884375"/>
      </g>
     </g>
     <g id="text_11">
      <!-- −2 -->
      <g transform="translate(35.857813 218.683594)scale(0.1 -0.1)">
       <use xlink:href="#DejaVuSans-2212"/>
       <use x="83.789062" xlink:href="#DejaVuSans-32"/>
      </g>
     </g>
    </g>
    <g id="ytick_4">
     <g id="line2d_12">
      <g>
       <use style="stroke:#000000;stroke-width:0.8;" x="57.6" xlink:href="#mc6563172f3" y="174.555278"/>
      </g>
     </g>
     <g id="text_12">
      <!-- 0 -->
      <g transform="translate(44.2375 178.354497)scale(0.1 -0.1)">
       <use xlink:href="#DejaVuSans-30"/>
      </g>
     </g>
    </g>
    <g id="ytick_5">
     <g id="line2d_13">
      <g>
       <use style="stroke:#000000;stroke-width:0.8;" x="57.6" xlink:href="#mc6563172f3" y="134.226181"/>
      </g>
     </g>
     <g id="text_13">
      <!-- 2 -->
      <g transform="translate(44.2375 138.0254)scale(0.1 -0.1)">
       <use xlink:href="#DejaVuSans-32"/>
      </g>
     </g>
    </g>
    <g id="ytick_6">
     <g id="line2d_14">
      <g>
       <use style="stroke:#000000;stroke-width:0.8;" x="57.6" xlink:href="#mc6563172f3" y="93.897085"/>
      </g>
     </g>
     <g id="text_14">
      <!-- 4 -->
      <g transform="translate(44.2375 97.696303)scale(0.1 -0.1)">
       <use xlink:href="#DejaVuSans-34"/>
      </g>
     </g>
    </g>
    <g id="ytick_7">
     <g id="line2d_15">
      <g>
       <use style="stroke:#000000;stroke-width:0.8;" x="57.6" xlink:href="#mc6563172f3" y="53.567988"/>
      </g>
     </g>
     <g id="text_15">
      <!-- 6 -->
      <g transform="translate(44.2375 57.367207)scale(0.1 -0.1)">
       <use xlink:href="#DejaVuSans-36"/>
      </g>
     </g>
    </g>
   </g>
   <g id="line2d_16">
    <path clip-path="url(#p45f9ba9ade)" d="M 73.832727 116.550881 
L 77.112066 102.165059 
L 80.391405 89.224483 
L 83.670744 77.987506 
L 86.950083 68.678472 
L 90.229421 61.483232 
L 93.50876 56.545436 
L 96.788099 53.963665 
L 100.067438 53.789465 
L 103.346777 56.026313 
L 106.626116 60.62955 
L 109.905455 67.507276 
L 113.184793 76.522177 
L 116.464132 87.494276 
L 119.743471 100.204518 
L 123.02281 114.399147 
L 126.302149 129.794772 
L 129.581488 146.084026 
L 132.860826 162.941698 
L 136.140165 180.031231 
L 139.419504 197.011439 
L 142.698843 213.543317 
L 145.978182 229.296813 
L 149.257521 243.957413 
L 152.53686 257.232423 
L 155.816198 268.856812 
L 159.095537 278.598504 
L 162.374876 286.263008 
L 165.654215 291.697307 
L 168.933554 294.792905 
L 172.212893 295.488 
L 175.492231 293.768715 
L 178.77157 289.669375 
L 182.050909 283.271822 
L 185.330248 274.703781 
L 188.609587 264.136309 
L 191.888926 251.780383 
L 195.168264 237.882684 
L 198.447603 222.720676 
L 201.726942 206.597062 
L 205.006281 189.833745 
L 208.28562 172.765398 
L 211.564959 155.732786 
L 214.844298 139.075958 
L 218.123636 123.127463 
L 221.402975 108.205706 
L 224.682314 94.608596 
L 227.961653 82.607594 
L 231.240992 72.442295 
L 234.520331 64.315647 
L 237.799669 58.389895 
L 241.079008 54.783345 
L 244.358347 53.568 
L 247.637686 54.768125 
L 250.917025 58.359758 
L 254.196364 64.271195 
L 257.475702 72.384416 
L 260.755041 82.537443 
L 264.03438 94.527574 
L 267.313719 108.115431 
L 270.593058 123.029736 
L 273.872397 138.972731 
L 277.151736 155.62612 
L 280.431074 172.657422 
L 283.710413 189.726614 
L 286.989752 206.492916 
L 290.269091 222.621594 
L 293.54843 237.790645 
L 296.827769 251.697223 
L 300.107107 264.063689 
L 303.386446 274.643151 
L 306.665785 283.224392 
L 309.945124 289.636092 
L 313.224463 293.750244 
L 316.503802 295.484709 
L 319.78314 294.80486 
L 323.062479 291.724269 
L 326.341818 286.30444 
L 329.621157 278.653577 
L 332.900496 268.924428 
L 336.179835 257.311231 
L 339.459174 244.04584 
L 342.738512 229.393094 
L 346.017851 213.64553 
L 349.29719 197.117542 
L 352.576529 180.139107 
L 355.855868 163.049193 
L 359.135207 146.188993 
L 362.414545 129.895117 
L 365.693884 114.492865 
L 368.973223 100.289739 
L 372.252562 87.569298 
L 375.531901 76.585503 
L 378.81124 67.55764 
L 382.090579 60.665949 
L 385.369917 56.048018 
L 388.649256 53.796044 
L 391.928595 53.954987 
L 395.207934 56.521673 
L 398.487273 61.444859 
" style="fill:none;stroke:#1f77b4;stroke-linecap:square;stroke-width:1.5;"/>
   </g>
   <g id="line2d_17">
    <path clip-path="url(#p45f9ba9ade)" d="M 73.832727 89.715866 
L 77.112066 82.88491 
L 80.391405 77.88412 
L 83.670744 74.813338 
L 86.950083 73.733868 
L 90.229421 74.667263 
L 93.50876 77.594888 
L 96.788099 82.458294 
L 100.067438 89.160384 
L 103.346777 97.567354 
L 106.626116 107.511361 
L 109.905455 118.793877 
L 113.184793 131.18965 
L 116.464132 144.451203 
L 119.743471 158.313773 
L 123.02281 172.500599 
L 126.302149 186.728446 
L 129.581488 200.713261 
L 132.860826 214.17584 
L 136.140165 226.847408 
L 139.419504 238.474982 
L 142.698843 248.826421 
L 145.978182 257.695062 
L 149.257521 264.903846 
L 152.53686 270.308853 
L 155.816198 273.802172 
L 159.095537 275.314061 
L 162.374876 274.814336 
L 165.654215 272.312973 
L 168.933554 267.859911 
L 172.212893 261.544055 
L 175.492231 253.491498 
L 178.77157 243.863007 
L 182.050909 232.85081 
L 185.330248 220.674764 
L 188.609587 207.577957 
L 191.888926 193.821865 
L 195.168264 179.681121 
L 198.447603 165.438042 
L 201.726942 151.376986 
L 205.006281 137.778676 
L 208.28562 124.914598 
L 211.564959 113.041579 
L 214.844298 102.39666 
L 218.123636 93.192363 
L 221.402975 85.612448 
L 224.682314 79.808247 
L 227.961653 75.895637 
L 231.240992 73.952733 
L 234.520331 74.018324 
L 237.799669 76.091101 
L 241.079008 80.129681 
L 244.358347 86.053435 
L 247.637686 93.744098 
L 250.917025 103.048129 
L 254.196364 113.779775 
L 257.475702 125.724783 
L 260.755041 138.644675 
L 264.03438 152.28151 
L 267.313719 166.363033 
L 270.593058 180.608111 
L 273.872397 194.732347 
L 277.151736 208.453754 
L 280.431074 221.49839 
L 283.710413 233.605823 
L 286.989752 244.534332 
L 290.269091 254.065734 
L 293.54843 262.009737 
L 296.827769 268.207741 
L 300.107107 272.536007 
L 303.386446 274.908121 
L 306.665785 275.276725 
L 309.945124 273.63446 
L 313.224463 270.014113 
L 316.503802 264.487964 
L 319.78314 257.16634 
L 323.062479 248.195414 
L 326.341818 237.754289 
L 329.621157 226.051417 
L 332.900496 213.320442 
L 336.179835 199.815534 
L 339.459174 185.806314 
L 342.738512 171.572471 
L 346.017851 157.398179 
L 349.29719 143.566422 
L 352.576529 130.353347 
L 355.855868 118.022748 
L 359.135207 106.820802 
L 362.414545 96.971151 
L 365.693884 88.670441 
L 368.973223 82.084391 
L 372.252562 77.344491 
L 375.531901 74.545371 
L 378.81124 73.742914 
L 382.090579 74.953142 
L 385.369917 78.151891 
L 388.649256 83.275301 
L 391.928595 90.221084 
L 395.207934 98.85057 
L 398.487273 108.991475 
" style="fill:none;stroke:#ff7f0e;stroke-linecap:square;stroke-width:1.5;"/>
   </g>
   <g id="line2d_18">
    <path clip-path="url(#p45f9ba9ade)" d="M 73.832727 94.099135 
L 77.112066 94.098117 
L 80.391405 95.7034 
L 83.670744 98.882932 
L 86.950083 103.573237 
L 90.229421 109.680674 
L 93.50876 117.083311 
L 96.788099 125.633355 
L 100.067438 135.160108 
L 103.346777 145.473373 
L 106.626116 156.367247 
L 109.905455 167.62424 
L 113.184793 179.019608 
L 116.464132 190.325847 
L 119.743471 201.317233 
L 123.02281 211.774325 
L 126.302149 221.488352 
L 129.581488 230.265376 
L 132.860826 237.930167 
L 136.140165 244.329701 
L 139.419504 249.336212 
L 142.698843 252.849748 
L 145.978182 254.800161 
L 149.257521 255.148513 
L 152.53686 253.887849 
L 155.816198 251.043338 
L 159.095537 246.671769 
L 162.374876 240.860419 
L 165.654215 233.72531 
L 168.933554 225.408891 
L 172.212893 216.077198 
L 175.492231 205.916534 
L 178.77157 195.129753 
L 182.050909 183.93221 
L 185.330248 172.547459 
L 188.609587 161.202794 
L 191.888926 150.124707 
L 195.168264 139.534368 
L 198.447603 129.643209 
L 201.726942 120.648704 
L 205.006281 112.730426 
L 208.28562 106.046459 
L 211.564959 100.730247 
L 214.844298 96.887926 
L 218.123636 94.596207 
L 221.402975 93.900844 
L 224.682314 94.815718 
L 227.961653 97.322566 
L 231.240992 101.371337 
L 234.520331 106.881201 
L 237.799669 113.742155 
L 241.079008 121.817221 
L 244.358347 130.945185 
L 247.637686 140.943809 
L 250.917025 151.613474 
L 254.196364 162.741165 
L 257.475702 174.10472 
L 260.755041 185.477271 
L 264.03438 196.631768 
L 267.313719 207.345515 
L 270.593058 217.404617 
L 273.872397 226.608246 
L 277.151736 234.772656 
L 280.431074 241.734846 
L 283.710413 247.35582 
L 286.989752 251.523356 
L 290.269091 254.15425 
L 293.54843 255.195979 
L 296.827769 254.627744 
L 300.107107 252.46089 
L 303.386446 248.738677 
L 306.665785 243.535418 
L 309.945124 236.954995 
L 313.224463 229.128782 
L 316.503802 220.213029 
L 319.78314 210.385734 
L 323.062479 199.843097 
L 326.341818 188.795597 
L 329.621157 177.463794 
L 332.900496 166.073923 
L 336.179835 154.85338 
L 339.459174 144.026178 
L 342.738512 133.808479 
L 346.017851 124.404276 
L 349.29719 116.001321 
L 352.576529 108.767375 
L 355.855868 102.846862 
L 359.135207 98.357982 
L 362.414545 95.390356 
L 365.693884 94.00323 
L 368.973223 94.224297 
L 372.252562 96.049145 
L 375.531901 99.441341 
L 378.81124 104.333161 
L 382.090579 110.626941 
L 385.369917 118.197028 
L 388.649256 126.892288 
L 391.928595 136.539123 
L 395.207934 146.944938 
L 398.487273 157.901984 
" style="fill:none;stroke:#2ca02c;stroke-linecap:square;stroke-width:1.5;"/>
   </g>
   <g id="line2d_19">
    <path clip-path="url(#p45f9ba9ade)" d="M 73.832727 119.548562 
L 77.112066 123.645797 
L 80.391405 128.759422 
L 83.670744 134.787346 
L 86.950083 141.609222 
L 90.229421 149.088856 
L 93.50876 157.076917 
L 96.788099 165.413928 
L 100.067438 173.933443 
L 103.346777 182.465373 
L 106.626116 190.83938 
L 109.905455 198.888281 
L 113.184793 206.451382 
L 116.464132 213.377688 
L 119.743471 219.528918 
L 123.02281 224.782265 
L 126.302149 229.032848 
L 129.581488 232.195804 
L 132.860826 234.207987 
L 136.140165 235.029225 
L 139.419504 234.643121 
L 142.698843 233.057384 
L 145.978182 230.303673 
L 149.257521 226.436964 
L 152.53686 221.534455 
L 155.816198 215.694023 
L 159.095537 209.032271 
L 162.374876 201.682197 
L 165.654215 193.790543 
L 168.933554 185.514864 
L 172.212893 177.020381 
L 175.492231 168.476682 
L 178.77157 160.054341 
L 182.050909 151.921506 
L 185.330248 144.240547 
L 188.609587 137.16481 
L 191.888926 130.835562 
L 195.168264 125.379162 
L 198.447603 120.904547 
L 201.726942 117.50105 
L 205.006281 115.236621 
L 208.28562 114.156468 
L 211.564959 114.282157 
L 214.844298 115.611178 
L 218.123636 118.116998 
L 221.402975 121.749588 
L 224.682314 126.436426 
L 227.961653 132.08394 
L 231.240992 138.57938 
L 234.520331 145.793066 
L 237.799669 153.58098 
L 241.079008 161.787638 
L 244.358347 170.249198 
L 247.637686 178.796727 
L 250.917025 187.259577 
L 254.196364 195.468791 
L 257.475702 203.260473 
L 260.755041 210.479066 
L 264.03438 216.980453 
L 267.313719 222.634835 
L 270.593058 227.329327 
L 273.872397 230.970202 
L 277.151736 233.484773 
L 280.431074 234.822837 
L 283.710413 234.95768 
L 286.989752 233.886609 
L 290.269091 231.63101 
L 293.54843 228.235913 
L 296.827769 223.7691 
L 300.107107 218.319751 
L 303.386446 211.996659 
L 306.665785 204.926062 
L 309.945124 197.249124 
L 313.224463 189.119111 
L 316.503802 180.698335 
L 319.78314 172.154916 
L 323.062479 163.659419 
L 326.341818 155.381455 
L 329.621157 147.486289 
L 332.900496 140.131546 
L 336.179835 133.464061 
L 339.459174 127.616948 
L 342.738512 122.706942 
L 346.017851 118.832071 
L 349.29719 116.069694 
L 352.576529 114.474962 
L 355.855868 114.079713 
L 359.135207 114.891837 
L 362.414545 116.895121 
L 365.693884 120.049571 
L 368.973223 124.292208 
L 372.252562 129.53833 
L 375.531901 135.6832 
L 378.81124 142.604138 
L 382.090579 150.162969 
L 385.369917 158.208784 
L 388.649256 166.580951 
L 391.928595 175.112323 
L 395.207934 183.632574 
L 398.487273 191.971599 
" style="fill:none;stroke:#d62728;stroke-linecap:square;stroke-width:1.5;"/>
   </g>
   <g id="line2d_20">
    <path clip-path="url(#p45f9ba9ade)" d="M 73.832727 150.419437 
L 77.112066 155.214162 
L 80.391405 160.395025 
L 83.670744 165.858592 
L 86.950083 171.495787 
L 90.229421 177.194062 
L 93.50876 182.839656 
L 96.788099 188.319854 
L 100.067438 193.525248 
L 103.346777 198.351913 
L 106.626116 202.703486 
L 109.905455 206.49309 
L 113.184793 209.645066 
L 116.464132 212.096487 
L 119.743471 213.798411 
L 123.02281 214.716859 
L 126.302149 214.833495 
L 129.581488 214.14599 
L 132.860826 212.66807 
L 136.140165 210.429242 
L 139.419504 207.474202 
L 142.698843 203.861947 
L 145.978182 199.664595 
L 149.257521 194.965944 
L 152.53686 189.859801 
L 155.816198 184.448109 
L 159.095537 178.838909 
L 162.374876 173.144189 
L 165.654215 167.47764 
L 168.933554 161.952394 
L 172.212893 156.67876 
L 175.492231 151.762024 
L 178.77157 147.300348 
L 182.050909 143.382808 
L 185.330248 140.087615 
L 188.609587 137.480557 
L 191.888926 135.613683 
L 195.168264 134.524264 
L 198.447603 134.234051 
L 201.726942 134.748837 
L 205.006281 136.058346 
L 208.28562 138.136432 
L 211.564959 140.941608 
L 214.844298 144.417869 
L 218.123636 148.495813 
L 221.402975 153.094025 
L 224.682314 158.120704 
L 227.961653 163.475494 
L 231.240992 169.051487 
L 234.520331 174.737362 
L 237.799669 180.419602 
L 241.079008 185.984762 
L 244.358347 191.321737 
L 247.637686 196.323975 
L 250.917025 200.891609 
L 254.196364 204.933446 
L 257.475702 208.368795 
L 260.755041 211.129068 
L 264.03438 213.159158 
L 267.313719 214.418534 
L 270.593058 214.882055 
L 273.872397 214.540465 
L 277.151736 213.400585 
L 280.431074 211.485172 
L 283.710413 208.832466 
L 286.989752 205.495428 
L 290.269091 201.540681 
L 293.54843 197.047179 
L 296.827769 192.104634 
L 300.107107 186.811723 
L 303.386446 181.274115 
L 306.665785 175.602369 
L 309.945124 169.909717 
L 313.224463 164.309813 
L 316.503802 158.914456 
L 319.78314 153.831362 
L 323.062479 149.162015 
L 326.341818 144.999635 
L 329.621157 141.427323 
L 332.900496 138.516399 
L 336.179835 136.324979 
L 339.459174 134.896814 
L 342.738512 134.260417 
L 346.017851 134.428492 
L 349.29719 135.397685 
L 352.576529 137.148646 
L 355.855868 139.646417 
L 359.135207 142.841132 
L 362.414545 146.669009 
L 365.693884 151.053625 
L 368.973223 155.907444 
L 372.252562 161.13356 
L 375.531901 166.627636 
L 378.81124 172.279985 
L 382.090579 177.97776 
L 385.369917 183.607205 
L 388.649256 189.055933 
L 391.928595 194.215159 
L 395.207934 198.981883 
L 398.487273 203.260938 
" style="fill:none;stroke:#9467bd;stroke-linecap:square;stroke-width:1.5;"/>
   </g>
   <g id="line2d_21">
    <path clip-path="url(#p45f9ba9ade)" d="M 73.832727 171.709657 
L 77.112066 174.551678 
L 80.391405 177.393772 
L 83.670744 180.179196 
L 86.950083 182.85234 
L 90.229421 185.359837 
L 93.50876 187.651624 
L 96.788099 189.681947 
L 100.067438 191.410271 
L 103.346777 192.802091 
L 106.626116 193.82962 
L 109.905455 194.472343 
L 113.184793 194.717429 
L 116.464132 194.559985 
L 119.743471 194.003153 
L 123.02281 193.058052 
L 126.302149 191.743549 
L 129.581488 190.085888 
L 132.860826 188.118163 
L 136.140165 185.879661 
L 139.419504 183.415071 
L 142.698843 180.773598 
L 145.978182 178.007979 
L 149.257521 175.173427 
L 152.53686 172.326535 
L 155.816198 169.524139 
L 159.095537 166.822187 
L 162.374876 164.274624 
L 165.654215 161.932311 
L 168.933554 159.842011 
L 172.212893 158.045456 
L 175.492231 156.578515 
L 178.77157 155.470473 
L 182.050909 154.743452 
L 185.330248 154.411968 
L 188.609587 154.482638 
L 191.888926 154.954052 
L 195.168264 155.816797 
L 198.447603 157.053649 
L 201.726942 158.639916 
L 205.006281 160.543927 
L 208.28562 162.72767 
L 211.564959 165.147547 
L 214.844298 167.755246 
L 218.123636 170.498706 
L 221.402975 173.323153 
L 224.682314 176.1722 
L 227.961653 178.988965 
L 231.240992 181.717213 
L 234.520331 184.302476 
L 237.799669 186.693139 
L 241.079008 188.841474 
L 244.358347 190.70459 
L 247.637686 192.245291 
L 250.917025 193.432816 
L 254.196364 194.243458 
L 257.475702 194.661032 
L 260.755041 194.677202 
L 264.03438 194.291645 
L 267.313719 193.512058 
L 270.593058 192.354005 
L 273.872397 190.840607 
L 277.151736 189.002077 
L 280.431074 186.875123 
L 283.710413 184.502207 
L 286.989752 181.930704 
L 290.269091 179.211953 
L 293.54843 176.400233 
L 296.827769 173.55168 
L 300.107107 170.723163 
L 303.386446 167.971152 
L 306.665785 165.350592 
L 309.945124 162.9138 
L 313.224463 160.709426 
L 316.503802 158.78148 
L 319.78314 157.168452 
L 323.062479 155.902546 
L 326.341818 155.009035 
L 329.621157 154.505759 
L 332.900496 154.402764 
L 336.179835 154.702107 
L 339.459174 155.397812 
L 342.738512 156.475989 
L 346.017851 157.915113 
L 349.29719 159.686452 
L 352.576529 161.754642 
L 355.855868 164.078392 
L 359.135207 166.61131 
L 362.414545 169.302826 
L 365.693884 172.099206 
L 368.973223 174.94462 
L 372.252562 177.782262 
L 375.531901 180.555477 
L 378.81124 183.208901 
L 382.090579 185.689558 
L 385.369917 187.947923 
L 388.649256 189.938909 
L 391.928595 191.622765 
L 395.207934 192.965875 
L 398.487273 193.941424 
" style="fill:none;stroke:#8c564b;stroke-linecap:square;stroke-width:1.5;"/>
   </g>
   <g id="patch_3">
    <path d="M 57.6 307.584 
L 57.6 41.472 
" style="fill:none;stroke:#000000;stroke-linecap:square;stroke-linejoin:miter;stroke-width:0.8;"/>
   </g>
   <g id="patch_4">
    <path d="M 414.72 307.584 
L 414.72 41.472 
" style="fill:none;stroke:#000000;stroke-linecap:square;stroke-linejoin:miter;stroke-width:0.8;"/>
   </g>
   <g id="patch_5">
    <path d="M 57.6 307.584 
L 414.72 307.584 
" style="fill:none;stroke:#000000;stroke-linecap:square;stroke-linejoin:miter;stroke-width:0.8;"/>
   </g>
   <g id="patch_6">
    <path d="M 57.6 41.472 
L 414.72 41.472 
" style="fill:none;stroke:#000000;stroke-linecap:square;stroke-linejoin:miter;stroke-width:0.8;"/>
   </g>
   <g id="text_16">
    <!-- Sine Graph -->
    <defs>
     <path d="M 53.515625 70.515625 
L 53.515625 60.890625 
Q 47.90625 63.578125 42.921875 64.890625 
Q 37.9375 66.21875 33.296875 66.21875 
Q 25.25 66.21875 20.875 63.09375 
Q 16.5 59.96875 16.5 54.203125 
Q 16.5 49.359375 19.40625 46.890625 
Q 22.3125 44.4375 30.421875 42.921875 
L 36.375 41.703125 
Q 47.40625 39.59375 52.65625 34.296875 
Q 57.90625 29 57.90625 20.125 
Q 57.90625 9.515625 50.796875 4.046875 
Q 43.703125 -1.421875 29.984375 -1.421875 
Q 24.8125 -1.421875 18.96875 -0.25 
Q 13.140625 0.921875 6.890625 3.21875 
L 6.890625 13.375 
Q 12.890625 10.015625 18.65625 8.296875 
Q 24.421875 6.59375 29.984375 6.59375 
Q 38.421875 6.59375 43.015625 9.90625 
Q 47.609375 13.234375 47.609375 19.390625 
Q 47.609375 24.75 44.3125 27.78125 
Q 41.015625 30.8125 33.5 32.328125 
L 27.484375 33.5 
Q 16.453125 35.6875 11.515625 40.375 
Q 6.59375 45.0625 6.59375 53.421875 
Q 6.59375 63.09375 13.40625 68.65625 
Q 20.21875 74.21875 32.171875 74.21875 
Q 37.3125 74.21875 42.625 73.28125 
Q 47.953125 72.359375 53.515625 70.515625 
z
" id="DejaVuSans-53"/>
     <path d="M 9.421875 54.6875 
L 18.40625 54.6875 
L 18.40625 0 
L 9.421875 0 
z
M 9.421875 75.984375 
L 18.40625 75.984375 
L 18.40625 64.59375 
L 9.421875 64.59375 
z
" id="DejaVuSans-69"/>
     <path d="M 54.890625 33.015625 
L 54.890625 0 
L 45.90625 0 
L 45.90625 32.71875 
Q 45.90625 40.484375 42.875 44.328125 
Q 39.84375 48.1875 33.796875 48.1875 
Q 26.515625 48.1875 22.3125 43.546875 
Q 18.109375 38.921875 18.109375 30.90625 
L 18.109375 0 
L 9.078125 0 
L 9.078125 54.6875 
L 18.109375 54.6875 
L 18.109375 46.1875 
Q 21.34375 51.125 25.703125 53.5625 
Q 30.078125 56 35.796875 56 
Q 45.21875 56 50.046875 50.171875 
Q 54.890625 44.34375 54.890625 33.015625 
z
" id="DejaVuSans-6e"/>
     <path d="M 56.203125 29.59375 
L 56.203125 25.203125 
L 14.890625 25.203125 
Q 15.484375 15.921875 20.484375 11.0625 
Q 25.484375 6.203125 34.421875 6.203125 
Q 39.59375 6.203125 44.453125 7.46875 
Q 49.3125 8.734375 54.109375 11.28125 
L 54.109375 2.78125 
Q 49.265625 0.734375 44.1875 -0.34375 
Q 39.109375 -1.421875 33.890625 -1.421875 
Q 20.796875 -1.421875 13.15625 6.1875 
Q 5.515625 13.8125 5.515625 26.8125 
Q 5.515625 40.234375 12.765625 48.109375 
Q 20.015625 56 32.328125 56 
Q 43.359375 56 49.78125 48.890625 
Q 56.203125 41.796875 56.203125 29.59375 
z
M 47.21875 32.234375 
Q 47.125 39.59375 43.09375 43.984375 
Q 39.0625 48.390625 32.421875 48.390625 
Q 24.90625 48.390625 20.390625 44.140625 
Q 15.875 39.890625 15.1875 32.171875 
z
" id="DejaVuSans-65"/>
     <path id="DejaVuSans-20"/>
     <path d="M 59.515625 10.40625 
L 59.515625 29.984375 
L 43.40625 29.984375 
L 43.40625 38.09375 
L 69.28125 38.09375 
L 69.28125 6.78125 
Q 63.578125 2.734375 56.6875 0.65625 
Q 49.8125 -1.421875 42 -1.421875 
Q 24.90625 -1.421875 15.25 8.5625 
Q 5.609375 18.5625 5.609375 36.375 
Q 5.609375 54.25 15.25 64.234375 
Q 24.90625 74.21875 42 74.21875 
Q 49.125 74.21875 55.546875 72.453125 
Q 61.96875 70.703125 67.390625 67.28125 
L 67.390625 56.78125 
Q 61.921875 61.421875 55.765625 63.765625 
Q 49.609375 66.109375 42.828125 66.109375 
Q 29.4375 66.109375 22.71875 58.640625 
Q 16.015625 51.171875 16.015625 36.375 
Q 16.015625 21.625 22.71875 14.15625 
Q 29.4375 6.6875 42.828125 6.6875 
Q 48.046875 6.6875 52.140625 7.59375 
Q 56.25 8.5 59.515625 10.40625 
z
" id="DejaVuSans-47"/>
     <path d="M 41.109375 46.296875 
Q 39.59375 47.171875 37.8125 47.578125 
Q 36.03125 48 33.890625 48 
Q 26.265625 48 22.1875 43.046875 
Q 18.109375 38.09375 18.109375 28.8125 
L 18.109375 0 
L 9.078125 0 
L 9.078125 54.6875 
L 18.109375 54.6875 
L 18.109375 46.1875 
Q 20.953125 51.171875 25.484375 53.578125 
Q 30.03125 56 36.53125 56 
Q 37.453125 56 38.578125 55.875 
Q 39.703125 55.765625 41.0625 55.515625 
z
" id="DejaVuSans-72"/>
     <path d="M 34.28125 27.484375 
Q 23.390625 27.484375 19.1875 25 
Q 14.984375 22.515625 14.984375 16.5 
Q 14.984375 11.71875 18.140625 8.90625 
Q 21.296875 6.109375 26.703125 6.109375 
Q 34.1875 6.109375 38.703125 11.40625 
Q 43.21875 16.703125 43.21875 25.484375 
L 43.21875 27.484375 
z
M 52.203125 31.203125 
L 52.203125 0 
L 43.21875 0 
L 43.21875 8.296875 
Q 40.140625 3.328125 35.546875 0.953125 
Q 30.953125 -1.421875 24.3125 -1.421875 
Q 15.921875 -1.421875 10.953125 3.296875 
Q 6 8.015625 6 15.921875 
Q 6 25.140625 12.171875 29.828125 
Q 18.359375 34.515625 30.609375 34.515625 
L 43.21875 34.515625 
L 43.21875 35.40625 
Q 43.21875 41.609375 39.140625 45 
Q 35.0625 48.390625 27.6875 48.390625 
Q 23 48.390625 18.546875 47.265625 
Q 14.109375 46.140625 10.015625 43.890625 
L 10.015625 52.203125 
Q 14.9375 54.109375 19.578125 55.046875 
Q 24.21875 56 28.609375 56 
Q 40.484375 56 46.34375 49.84375 
Q 52.203125 43.703125 52.203125 31.203125 
z
" id="DejaVuSans-61"/>
     <path d="M 18.109375 8.203125 
L 18.109375 -20.796875 
L 9.078125 -20.796875 
L 9.078125 54.6875 
L 18.109375 54.6875 
L 18.109375 46.390625 
Q 20.953125 51.265625 25.265625 53.625 
Q 29.59375 56 35.59375 56 
Q 45.5625 56 51.78125 48.09375 
Q 58.015625 40.1875 58.015625 27.296875 
Q 58.015625 14.40625 51.78125 6.484375 
Q 45.5625 -1.421875 35.59375 -1.421875 
Q 29.59375 -1.421875 25.265625 0.953125 
Q 20.953125 3.328125 18.109375 8.203125 
z
M 48.6875 27.296875 
Q 48.6875 37.203125 44.609375 42.84375 
Q 40.53125 48.484375 33.40625 48.484375 
Q 26.265625 48.484375 22.1875 42.84375 
Q 18.109375 37.203125 18.109375 27.296875 
Q 18.109375 17.390625 22.1875 11.75 
Q 26.265625 6.109375 33.40625 6.109375 
Q 40.53125 6.109375 44.609375 11.75 
Q 48.6875 17.390625 48.6875 27.296875 
z
" id="DejaVuSans-70"/>
     <path d="M 54.890625 33.015625 
L 54.890625 0 
L 45.90625 0 
L 45.90625 32.71875 
Q 45.90625 40.484375 42.875 44.328125 
Q 39.84375 48.1875 33.796875 48.1875 
Q 26.515625 48.1875 22.3125 43.546875 
Q 18.109375 38.921875 18.109375 30.90625 
L 18.109375 0 
L 9.078125 0 
L 9.078125 75.984375 
L 18.109375 75.984375 
L 18.109375 46.1875 
Q 21.34375 51.125 25.703125 53.5625 
Q 30.078125 56 35.796875 56 
Q 45.21875 56 50.046875 50.171875 
Q 54.890625 44.34375 54.890625 33.015625 
z
" id="DejaVuSans-68"/>
    </defs>
    <g transform="translate(202.87875 35.472)scale(0.12 -0.12)">
     <use xlink:href="#DejaVuSans-53"/>
     <use x="63.476562" xlink:href="#DejaVuSans-69"/>
     <use x="91.259766" xlink:href="#DejaVuSans-6e"/>
     <use x="154.638672" xlink:href="#DejaVuSans-65"/>
     <use x="216.162109" xlink:href="#DejaVuSans-20"/>
     <use x="247.949219" xlink:href="#DejaVuSans-47"/>
     <use x="325.439453" xlink:href="#DejaVuSans-72"/>
     <use x="366.552734" xlink:href="#DejaVuSans-61"/>
     <use x="427.832031" xlink:href="#DejaVuSans-70"/>
     <use x="491.308594" xlink:href="#DejaVuSans-68"/>
    </g>
   </g>
  </g>
 </g>
 <defs>
  <clipPath id="p45f9ba9ade">
   <rect height="266.112" width="357.12" x="57.6" y="41.472"/>
  </clipPath>
 </defs>
</svg>
